<mxfile host="Electron" agent="Mozilla/5.0 (X11; Linux x86_64) AppleWebKit/537.36 (KHTML, like Gecko) draw.io/26.0.9 Chrome/128.0.6613.186 Electron/32.3.0 Safari/537.36" version="26.0.9">
  <diagram id="R2lEEEUBdFMjLlhIrx00" name="Page-1">
    <mxGraphModel dx="2290" dy="890" grid="1" gridSize="10" guides="1" tooltips="1" connect="1" arrows="1" fold="1" page="1" pageScale="1" pageWidth="827" pageHeight="1169" math="0" shadow="0" extFonts="Permanent Marker^https://fonts.googleapis.com/css?family=Permanent+Marker">
      <root>
        <mxCell id="0" />
        <mxCell id="1" parent="0" />
        <mxCell id="dO8oP3vKGmz8WWTWefc8-3" style="rounded=0;orthogonalLoop=1;jettySize=auto;html=1;exitX=0.5;exitY=0;exitDx=0;exitDy=0;entryX=0;entryY=1;entryDx=0;entryDy=0;endArrow=none;startFill=0;" edge="1" parent="1" source="dO8oP3vKGmz8WWTWefc8-1" target="dO8oP3vKGmz8WWTWefc8-2">
          <mxGeometry relative="1" as="geometry" />
        </mxCell>
        <mxCell id="dO8oP3vKGmz8WWTWefc8-18" value="" style="edgeStyle=orthogonalEdgeStyle;rounded=0;orthogonalLoop=1;jettySize=auto;html=1;endArrow=none;startFill=0;startArrow=ERmandOne;startSize=12;" edge="1" parent="1" source="dO8oP3vKGmz8WWTWefc8-1" target="dO8oP3vKGmz8WWTWefc8-17">
          <mxGeometry relative="1" as="geometry" />
        </mxCell>
        <mxCell id="dO8oP3vKGmz8WWTWefc8-1" value="&lt;font style=&quot;font-size: 18px;&quot;&gt;Workout&lt;/font&gt;" style="rounded=0;whiteSpace=wrap;html=1;fillColor=#1ba1e2;strokeColor=#006EAF;fontColor=#ffffff;" vertex="1" parent="1">
          <mxGeometry x="290" y="290" width="120" height="60" as="geometry" />
        </mxCell>
        <mxCell id="dO8oP3vKGmz8WWTWefc8-2" value="&lt;u&gt;&lt;b&gt;ID&lt;/b&gt;&lt;/u&gt;" style="ellipse;whiteSpace=wrap;html=1;fontSize=18;fillColor=#d80073;fontColor=#ffffff;strokeColor=#A50040;" vertex="1" parent="1">
          <mxGeometry x="470" y="220" width="110" height="50" as="geometry" />
        </mxCell>
        <mxCell id="dO8oP3vKGmz8WWTWefc8-6" style="rounded=0;orthogonalLoop=1;jettySize=auto;html=1;exitX=0.5;exitY=1;exitDx=0;exitDy=0;entryX=0.5;entryY=0;entryDx=0;entryDy=0;endArrow=none;startFill=0;" edge="1" parent="1" source="dO8oP3vKGmz8WWTWefc8-4" target="dO8oP3vKGmz8WWTWefc8-1">
          <mxGeometry relative="1" as="geometry" />
        </mxCell>
        <mxCell id="dO8oP3vKGmz8WWTWefc8-4" value="Date" style="ellipse;whiteSpace=wrap;html=1;fontSize=18;fillColor=#d80073;fontColor=#ffffff;strokeColor=#A50040;" vertex="1" parent="1">
          <mxGeometry x="250" y="60" width="110" height="50" as="geometry" />
        </mxCell>
        <mxCell id="dO8oP3vKGmz8WWTWefc8-7" style="rounded=0;orthogonalLoop=1;jettySize=auto;html=1;exitX=0.5;exitY=1;exitDx=0;exitDy=0;entryX=0.5;entryY=0;entryDx=0;entryDy=0;endArrow=none;startFill=0;" edge="1" parent="1" source="dO8oP3vKGmz8WWTWefc8-5" target="dO8oP3vKGmz8WWTWefc8-1">
          <mxGeometry relative="1" as="geometry" />
        </mxCell>
        <mxCell id="dO8oP3vKGmz8WWTWefc8-5" value="TimetoComplete" style="ellipse;whiteSpace=wrap;html=1;fontSize=18;fillColor=#d80073;fontColor=#ffffff;strokeColor=#A50040;" vertex="1" parent="1">
          <mxGeometry x="130" y="125" width="150" height="55" as="geometry" />
        </mxCell>
        <mxCell id="dO8oP3vKGmz8WWTWefc8-12" style="rounded=0;orthogonalLoop=1;jettySize=auto;html=1;exitX=0.5;exitY=1;exitDx=0;exitDy=0;entryX=0.5;entryY=0;entryDx=0;entryDy=0;endArrow=none;startFill=0;" edge="1" parent="1" source="dO8oP3vKGmz8WWTWefc8-9" target="dO8oP3vKGmz8WWTWefc8-1">
          <mxGeometry relative="1" as="geometry" />
        </mxCell>
        <mxCell id="dO8oP3vKGmz8WWTWefc8-9" value="Name" style="ellipse;whiteSpace=wrap;html=1;fontSize=18;fillColor=#d80073;fontColor=#ffffff;strokeColor=#A50040;" vertex="1" parent="1">
          <mxGeometry x="380" y="60" width="110" height="50" as="geometry" />
        </mxCell>
        <mxCell id="dO8oP3vKGmz8WWTWefc8-14" style="rounded=0;orthogonalLoop=1;jettySize=auto;html=1;exitX=0;exitY=1;exitDx=0;exitDy=0;entryX=0.5;entryY=0;entryDx=0;entryDy=0;endArrow=none;startFill=0;" edge="1" parent="1" source="dO8oP3vKGmz8WWTWefc8-13" target="dO8oP3vKGmz8WWTWefc8-1">
          <mxGeometry relative="1" as="geometry" />
        </mxCell>
        <mxCell id="dO8oP3vKGmz8WWTWefc8-13" value="MuscleSplit" style="ellipse;whiteSpace=wrap;html=1;fontSize=18;fillColor=#d80073;fontColor=#ffffff;strokeColor=#A50040;" vertex="1" parent="1">
          <mxGeometry x="470" y="130" width="110" height="50" as="geometry" />
        </mxCell>
        <mxCell id="dO8oP3vKGmz8WWTWefc8-16" style="rounded=0;orthogonalLoop=1;jettySize=auto;html=1;exitX=1;exitY=0.5;exitDx=0;exitDy=0;entryX=0.5;entryY=0;entryDx=0;entryDy=0;endArrow=none;startFill=0;" edge="1" parent="1" source="dO8oP3vKGmz8WWTWefc8-15" target="dO8oP3vKGmz8WWTWefc8-1">
          <mxGeometry relative="1" as="geometry" />
        </mxCell>
        <mxCell id="dO8oP3vKGmz8WWTWefc8-15" value="NumberOfSets" style="ellipse;whiteSpace=wrap;html=1;fontSize=18;fillColor=#d80073;fontColor=#ffffff;strokeColor=#A50040;" vertex="1" parent="1">
          <mxGeometry x="90" y="220" width="150" height="55" as="geometry" />
        </mxCell>
        <mxCell id="dO8oP3vKGmz8WWTWefc8-20" value="" style="edgeStyle=orthogonalEdgeStyle;rounded=0;orthogonalLoop=1;jettySize=auto;html=1;endArrow=ERoneToMany;endFill=0;startSize=6;endSize=12;" edge="1" parent="1" source="dO8oP3vKGmz8WWTWefc8-17" target="dO8oP3vKGmz8WWTWefc8-19">
          <mxGeometry relative="1" as="geometry" />
        </mxCell>
        <mxCell id="dO8oP3vKGmz8WWTWefc8-17" value="Has" style="rhombus;whiteSpace=wrap;html=1;fillColor=#0050ef;strokeColor=#001DBC;fontColor=#ffffff;rounded=0;fontSize=18;" vertex="1" parent="1">
          <mxGeometry x="310" y="397" width="80" height="80" as="geometry" />
        </mxCell>
        <mxCell id="dO8oP3vKGmz8WWTWefc8-24" style="rounded=0;orthogonalLoop=1;jettySize=auto;html=1;exitX=1;exitY=0.5;exitDx=0;exitDy=0;entryX=0;entryY=0;entryDx=0;entryDy=0;endArrow=none;startFill=0;" edge="1" parent="1" source="dO8oP3vKGmz8WWTWefc8-19" target="dO8oP3vKGmz8WWTWefc8-23">
          <mxGeometry relative="1" as="geometry" />
        </mxCell>
        <mxCell id="dO8oP3vKGmz8WWTWefc8-33" value="" style="edgeStyle=orthogonalEdgeStyle;rounded=0;orthogonalLoop=1;jettySize=auto;html=1;endArrow=none;startFill=0;startArrow=ERzeroToMany;startSize=12;" edge="1" parent="1" source="dO8oP3vKGmz8WWTWefc8-19" target="dO8oP3vKGmz8WWTWefc8-32">
          <mxGeometry relative="1" as="geometry" />
        </mxCell>
        <mxCell id="dO8oP3vKGmz8WWTWefc8-19" value="Set" style="whiteSpace=wrap;html=1;fontSize=18;fillColor=#1ba1e2;strokeColor=#006EAF;fontColor=#ffffff;rounded=0;" vertex="1" parent="1">
          <mxGeometry x="290" y="530" width="120" height="60" as="geometry" />
        </mxCell>
        <mxCell id="dO8oP3vKGmz8WWTWefc8-22" style="rounded=0;orthogonalLoop=1;jettySize=auto;html=1;exitX=0;exitY=0;exitDx=0;exitDy=0;entryX=1;entryY=0.5;entryDx=0;entryDy=0;endArrow=none;startFill=0;" edge="1" parent="1" source="dO8oP3vKGmz8WWTWefc8-21" target="dO8oP3vKGmz8WWTWefc8-19">
          <mxGeometry relative="1" as="geometry" />
        </mxCell>
        <mxCell id="dO8oP3vKGmz8WWTWefc8-21" value="MetricA" style="ellipse;whiteSpace=wrap;html=1;fontSize=18;fillColor=#d80073;fontColor=#ffffff;strokeColor=#A50040;" vertex="1" parent="1">
          <mxGeometry x="520" y="700" width="150" height="55" as="geometry" />
        </mxCell>
        <mxCell id="dO8oP3vKGmz8WWTWefc8-23" value="MetricB" style="ellipse;whiteSpace=wrap;html=1;fontSize=18;fillColor=#d80073;fontColor=#ffffff;strokeColor=#A50040;" vertex="1" parent="1">
          <mxGeometry x="600" y="620" width="150" height="55" as="geometry" />
        </mxCell>
        <mxCell id="dO8oP3vKGmz8WWTWefc8-26" style="rounded=0;orthogonalLoop=1;jettySize=auto;html=1;exitX=0;exitY=0.5;exitDx=0;exitDy=0;entryX=1;entryY=0.5;entryDx=0;entryDy=0;endArrow=none;startFill=0;" edge="1" parent="1" source="dO8oP3vKGmz8WWTWefc8-25" target="dO8oP3vKGmz8WWTWefc8-19">
          <mxGeometry relative="1" as="geometry" />
        </mxCell>
        <mxCell id="dO8oP3vKGmz8WWTWefc8-25" value="Status" style="ellipse;whiteSpace=wrap;html=1;fontSize=18;fillColor=#d80073;fontColor=#ffffff;strokeColor=#A50040;" vertex="1" parent="1">
          <mxGeometry x="630" y="535" width="150" height="55" as="geometry" />
        </mxCell>
        <mxCell id="dO8oP3vKGmz8WWTWefc8-29" style="rounded=0;orthogonalLoop=1;jettySize=auto;html=1;exitX=0;exitY=0.5;exitDx=0;exitDy=0;entryX=1;entryY=0.5;entryDx=0;entryDy=0;endArrow=none;startFill=0;" edge="1" parent="1" source="dO8oP3vKGmz8WWTWefc8-28" target="dO8oP3vKGmz8WWTWefc8-19">
          <mxGeometry relative="1" as="geometry" />
        </mxCell>
        <mxCell id="dO8oP3vKGmz8WWTWefc8-28" value="Type" style="ellipse;whiteSpace=wrap;html=1;fontSize=18;fillColor=#d80073;fontColor=#ffffff;strokeColor=#A50040;" vertex="1" parent="1">
          <mxGeometry x="600" y="452" width="150" height="55" as="geometry" />
        </mxCell>
        <mxCell id="dO8oP3vKGmz8WWTWefc8-31" style="rounded=0;orthogonalLoop=1;jettySize=auto;html=1;exitX=0;exitY=0.5;exitDx=0;exitDy=0;entryX=1;entryY=0.5;entryDx=0;entryDy=0;endArrow=none;startFill=0;" edge="1" parent="1" source="dO8oP3vKGmz8WWTWefc8-30" target="dO8oP3vKGmz8WWTWefc8-19">
          <mxGeometry relative="1" as="geometry" />
        </mxCell>
        <mxCell id="dO8oP3vKGmz8WWTWefc8-30" value="RestTime" style="ellipse;whiteSpace=wrap;html=1;fontSize=18;fillColor=#d80073;fontColor=#ffffff;strokeColor=#A50040;" vertex="1" parent="1">
          <mxGeometry x="520" y="380" width="150" height="55" as="geometry" />
        </mxCell>
        <mxCell id="dO8oP3vKGmz8WWTWefc8-35" value="" style="rounded=0;orthogonalLoop=1;jettySize=auto;html=1;endArrow=ERmandOne;endFill=0;startSize=6;endSize=12;" edge="1" parent="1" target="dO8oP3vKGmz8WWTWefc8-34">
          <mxGeometry relative="1" as="geometry">
            <mxPoint x="350" y="720" as="sourcePoint" />
          </mxGeometry>
        </mxCell>
        <mxCell id="dO8oP3vKGmz8WWTWefc8-32" value="Is Of" style="rhombus;whiteSpace=wrap;html=1;fontSize=18;fillColor=#0050ef;strokeColor=#001DBC;fontColor=#ffffff;rounded=0;" vertex="1" parent="1">
          <mxGeometry x="310" y="650" width="80" height="80" as="geometry" />
        </mxCell>
        <mxCell id="dO8oP3vKGmz8WWTWefc8-34" value="Exercise" style="whiteSpace=wrap;html=1;fontSize=18;fillColor=#1ba1e2;strokeColor=#006EAF;fontColor=#ffffff;rounded=0;" vertex="1" parent="1">
          <mxGeometry x="290" y="790" width="120" height="60" as="geometry" />
        </mxCell>
        <mxCell id="dO8oP3vKGmz8WWTWefc8-44" style="rounded=0;orthogonalLoop=1;jettySize=auto;html=1;exitX=1;exitY=0.5;exitDx=0;exitDy=0;entryX=0.5;entryY=1;entryDx=0;entryDy=0;endArrow=none;startFill=0;" edge="1" parent="1" source="dO8oP3vKGmz8WWTWefc8-36" target="dO8oP3vKGmz8WWTWefc8-34">
          <mxGeometry relative="1" as="geometry" />
        </mxCell>
        <mxCell id="dO8oP3vKGmz8WWTWefc8-36" value="&lt;b&gt;&lt;u&gt;ID&lt;/u&gt;&lt;/b&gt;" style="ellipse;whiteSpace=wrap;html=1;fontSize=18;fillColor=#d80073;fontColor=#ffffff;strokeColor=#A50040;" vertex="1" parent="1">
          <mxGeometry x="70" y="860" width="150" height="55" as="geometry" />
        </mxCell>
        <mxCell id="dO8oP3vKGmz8WWTWefc8-45" style="rounded=0;orthogonalLoop=1;jettySize=auto;html=1;exitX=1;exitY=0;exitDx=0;exitDy=0;entryX=0.5;entryY=1;entryDx=0;entryDy=0;endArrow=none;startFill=0;" edge="1" parent="1" source="dO8oP3vKGmz8WWTWefc8-37" target="dO8oP3vKGmz8WWTWefc8-34">
          <mxGeometry relative="1" as="geometry" />
        </mxCell>
        <mxCell id="dO8oP3vKGmz8WWTWefc8-37" value="Name" style="ellipse;whiteSpace=wrap;html=1;fontSize=18;fillColor=#d80073;fontColor=#ffffff;strokeColor=#A50040;" vertex="1" parent="1">
          <mxGeometry x="90" y="935" width="150" height="55" as="geometry" />
        </mxCell>
        <mxCell id="dO8oP3vKGmz8WWTWefc8-46" style="rounded=0;orthogonalLoop=1;jettySize=auto;html=1;exitX=1;exitY=0;exitDx=0;exitDy=0;endArrow=none;startFill=0;entryX=0.5;entryY=1;entryDx=0;entryDy=0;" edge="1" parent="1" source="dO8oP3vKGmz8WWTWefc8-38" target="dO8oP3vKGmz8WWTWefc8-34">
          <mxGeometry relative="1" as="geometry" />
        </mxCell>
        <mxCell id="dO8oP3vKGmz8WWTWefc8-38" value="PrimaryMuscleGroup" style="ellipse;whiteSpace=wrap;html=1;fontSize=18;fillColor=#d80073;fontColor=#ffffff;strokeColor=#A50040;" vertex="1" parent="1">
          <mxGeometry x="90" y="1010" width="210" height="70" as="geometry" />
        </mxCell>
        <mxCell id="dO8oP3vKGmz8WWTWefc8-48" style="rounded=0;orthogonalLoop=1;jettySize=auto;html=1;exitX=0.5;exitY=0;exitDx=0;exitDy=0;entryX=0.5;entryY=1;entryDx=0;entryDy=0;endArrow=none;startFill=0;" edge="1" parent="1" source="dO8oP3vKGmz8WWTWefc8-39" target="dO8oP3vKGmz8WWTWefc8-34">
          <mxGeometry relative="1" as="geometry" />
        </mxCell>
        <mxCell id="dO8oP3vKGmz8WWTWefc8-39" value="OtherMuscleGroups" style="ellipse;whiteSpace=wrap;html=1;fontSize=18;fillColor=#d80073;fontColor=#ffffff;strokeColor=#A50040;" vertex="1" parent="1">
          <mxGeometry x="240" y="1070" width="210" height="70" as="geometry" />
        </mxCell>
        <mxCell id="dO8oP3vKGmz8WWTWefc8-49" style="rounded=0;orthogonalLoop=1;jettySize=auto;html=1;exitX=0;exitY=0;exitDx=0;exitDy=0;entryX=0.5;entryY=1;entryDx=0;entryDy=0;endArrow=none;startFill=0;" edge="1" parent="1" source="dO8oP3vKGmz8WWTWefc8-41" target="dO8oP3vKGmz8WWTWefc8-34">
          <mxGeometry relative="1" as="geometry" />
        </mxCell>
        <mxCell id="dO8oP3vKGmz8WWTWefc8-41" value="SetMetricType" style="ellipse;whiteSpace=wrap;html=1;fontSize=18;fillColor=#d80073;fontColor=#ffffff;strokeColor=#A50040;" vertex="1" parent="1">
          <mxGeometry x="400" y="1010" width="210" height="70" as="geometry" />
        </mxCell>
        <mxCell id="dO8oP3vKGmz8WWTWefc8-50" style="rounded=0;orthogonalLoop=1;jettySize=auto;html=1;exitX=0;exitY=0;exitDx=0;exitDy=0;entryX=0.5;entryY=1;entryDx=0;entryDy=0;endArrow=none;startFill=0;" edge="1" parent="1" source="dO8oP3vKGmz8WWTWefc8-42" target="dO8oP3vKGmz8WWTWefc8-34">
          <mxGeometry relative="1" as="geometry" />
        </mxCell>
        <mxCell id="dO8oP3vKGmz8WWTWefc8-42" value="Equipment" style="ellipse;whiteSpace=wrap;html=1;fontSize=18;fillColor=#d80073;fontColor=#ffffff;strokeColor=#A50040;" vertex="1" parent="1">
          <mxGeometry x="460" y="940" width="150" height="55" as="geometry" />
        </mxCell>
        <mxCell id="dO8oP3vKGmz8WWTWefc8-47" style="rounded=0;orthogonalLoop=1;jettySize=auto;html=1;exitX=0;exitY=0.5;exitDx=0;exitDy=0;entryX=0.5;entryY=1;entryDx=0;entryDy=0;endArrow=none;startFill=0;" edge="1" parent="1" source="dO8oP3vKGmz8WWTWefc8-43" target="dO8oP3vKGmz8WWTWefc8-34">
          <mxGeometry relative="1" as="geometry" />
        </mxCell>
        <mxCell id="dO8oP3vKGmz8WWTWefc8-43" value="Rest Time" style="ellipse;whiteSpace=wrap;html=1;fontSize=18;fillColor=#d80073;fontColor=#ffffff;strokeColor=#A50040;" vertex="1" parent="1">
          <mxGeometry x="470" y="870" width="150" height="55" as="geometry" />
        </mxCell>
        <mxCell id="dO8oP3vKGmz8WWTWefc8-52" style="rounded=0;orthogonalLoop=1;jettySize=auto;html=1;exitX=1;exitY=0.5;exitDx=0;exitDy=0;entryX=0;entryY=0.5;entryDx=0;entryDy=0;endArrow=none;startFill=0;" edge="1" parent="1" source="dO8oP3vKGmz8WWTWefc8-51" target="dO8oP3vKGmz8WWTWefc8-19">
          <mxGeometry relative="1" as="geometry" />
        </mxCell>
        <mxCell id="dO8oP3vKGmz8WWTWefc8-51" value="SetNumber" style="ellipse;whiteSpace=wrap;html=1;fontSize=18;fillColor=#d80073;fontColor=#ffffff;strokeColor=#A50040;" vertex="1" parent="1">
          <mxGeometry x="-20" y="532.5" width="150" height="55" as="geometry" />
        </mxCell>
      </root>
    </mxGraphModel>
  </diagram>
</mxfile>
